<svg xmlns="http://www.w3.org/2000/svg" viewBox="0 0 126.343 126.343"><g id="Layer_3" data-name="Layer 3"><circle cx="63.171" cy="63.171" r="63.167" style="fill:#fff"/></g><g id="Layer_1" data-name="Layer 1"><path d="M115.356,88.067A13.453,13.453,0,0,0,94.207,75.014l-.008.006-14.555.187a9.252,9.252,0,0,0-.505-.784A9.847,9.847,0,0,0,75.2,71.205L72.252,59.05a9.891,9.891,0,0,0,6.975-18.231L75.914,25.336a.738.738,0,0,0,.056-.127,13.448,13.448,0,1,0-24.84-.722A13.574,13.574,0,0,0,52.8,27.58,13.363,13.363,0,0,0,58.2,31.974l7.442,12.515c-.151.27-.288.542-.414.83a9.749,9.749,0,0,0-.824,5.014l-9.051,8.632A9.891,9.891,0,0,0,36.08,62.039L24.322,72.65c-.044.007-.095.006-.139.013a13.453,13.453,0,1,0,11.794,21.88A13.7,13.7,0,0,0,38.41,90a13.43,13.43,0,0,0,.516-5.322l7.114-12.7a8.2,8.2,0,0,0,.926-.051,9.867,9.867,0,0,0,4.764-1.8l12,3.522A9.891,9.891,0,0,0,76.027,88.8l15.064,4.878.082.114a13.448,13.448,0,0,0,24.183-5.729ZM66.841,27.935a8.808,8.808,0,1,1,4.905-4.627A8.737,8.737,0,0,1,66.841,27.935ZM38.721,62.824a7.28,7.28,0,0,1,13.288-4.815L48.07,56.878c-7.93-1.066-9.707,9.315-3.143,11.243l3.168.935a6.772,6.772,0,0,1-1.392.277,7.279,7.279,0,0,1-7.982-6.509Zm-4.4,22.324a8.81,8.81,0,1,1-3.2-5.937A8.763,8.763,0,0,1,34.318,85.148ZM69.54,45.442l-2.4,2.286a6.858,6.858,0,0,1,.461-1.345,7.287,7.287,0,1,1,9.235,9.8,7.433,7.433,0,0,1-2.089.458l2.95-2.857C82.585,47.456,74.481,40.727,69.54,45.442Zm.418,41.965a7.273,7.273,0,0,1-6.034-8.359,7.38,7.38,0,0,1,.644-2.032l1,3.982c3.043,7.4,12.916,3.75,11.3-2.9l-.778-3.215a7.288,7.288,0,0,1-6.132,12.523Zm30.716,7.221a8.819,8.819,0,1,1,6.568-1.556A8.809,8.809,0,0,1,100.674,94.628Z" transform="translate(-0.829 -0.829)" style="fill:#00153f;fill-rule:evenodd"/><circle cx="101.195" cy="85.134" r="6.746" style="fill:#00153f"/><circle cx="62.876" cy="18.875" r="6.746" style="fill:#00153f"/><circle cx="24.852" cy="85.074" r="6.746" style="fill:#00153f"/><path d="M120.185,78.132a20.007,20.007,0,0,0-1.9-3.246,19.172,19.172,0,0,0-12.609-7.781,18.96,18.96,0,0,0-6.293.009C103.217,54.1,95,40.08,95,40.08a37.971,37.971,0,0,1,9.935,20.391c1.419-6.728-2-14.916-2-14.916A32.483,32.483,0,0,1,109.3,61.544c.941-21.011-17.041-35.807-18.261-36.787a47.618,47.618,0,0,1,21.523,29.851c.792-13.78-10.682-26.187-12.781-28.335,16.779,16.071,18.691,34.341,18.777,35.27.488-24.6-19.337-42.657-25.822-47.89a57.991,57.991,0,0,1,27.452,64.479Z" transform="translate(-0.829 -0.829)" style="fill:#00153f;fill-rule:evenodd"/><path d="M120.185,78.132a20.007,20.007,0,0,0-1.9-3.246,19.172,19.172,0,0,0-12.609-7.781,18.96,18.96,0,0,0-6.293.009C103.217,54.1,95,40.08,95,40.08a37.971,37.971,0,0,1,9.935,20.391c1.419-6.728-2-14.916-2-14.916A32.483,32.483,0,0,1,109.3,61.544c.941-21.011-17.041-35.807-18.261-36.787a47.618,47.618,0,0,1,21.523,29.851c.792-13.78-10.682-26.187-12.781-28.335,16.779,16.071,18.691,34.341,18.777,35.27.488-24.6-19.337-42.657-25.822-47.89a57.991,57.991,0,0,1,27.452,64.479Z" transform="translate(-0.829 -0.829)" style="fill:#00153f;fill-rule:evenodd"/><path d="M23.71,105.623a20.054,20.054,0,0,0,3.761-.05,19.174,19.174,0,0,0,13-7.118,18.956,18.956,0,0,0,3.1-5.476c9.423,9.766,25.67,9.544,25.67,9.544A37.969,37.969,0,0,1,46.6,101.086c5.148,4.558,13.955,5.633,13.955,5.633a32.478,32.478,0,0,1-17.044-2.368c17.8,11.2,39.55,2.875,41.005,2.3a47.614,47.614,0,0,1-36.586,3.965c11.589,7.5,28.044,3.651,30.949,2.887-22.262,6.648-39.092-.715-39.941-1.1,21.144,12.577,46.64,4.262,54.394,1.209a57.988,57.988,0,0,1-69.623-7.987Z" transform="translate(-0.829 -0.829)" style="fill:#00153f;fill-rule:evenodd"/><path d="M48.1,8.294a20.172,20.172,0,0,0-1.858,3.27,19.179,19.179,0,0,0-.425,14.811,18.982,18.982,0,0,0,3.158,5.444c-13.189,3.2-21.208,17.327-21.208,17.327a37.974,37.974,0,0,1,12.68-18.807c-6.535,2.139-11.913,9.2-11.913,9.2A32.492,32.492,0,0,1,39.185,26.023c-18.66,9.7-22.467,32.676-22.7,34.224A47.614,47.614,0,0,1,31.548,26.672C19.223,32.884,14.225,49.027,13.416,51.919,18.93,29.35,33.789,18.548,34.55,18.009,13.012,29.9,7.3,56.1,6.018,64.336A57.99,57.99,0,0,1,48.1,8.294Z" transform="translate(-0.829 -0.829)" style="fill:#00153f;fill-rule:evenodd"/></g></svg>